<svg id="OBJECTS" xmlns="http://www.w3.org/2000/svg" xmlns:xlink="http://www.w3.org/1999/xlink" viewBox="0 0 713.88 103.77"><defs><style>.cls-1{fill:url(#linear-gradient);}</style><linearGradient id="linear-gradient" x1="18.06" y1="58.87" x2="731.94" y2="58.87" gradientUnits="userSpaceOnUse"><stop offset="0" stop-color="#ffeb3b"/><stop offset="0.14" stop-color="#fde639"/><stop offset="0.32" stop-color="#f9d733"/><stop offset="0.51" stop-color="#f1bf28"/><stop offset="0.71" stop-color="#e79d1a"/><stop offset="0.92" stop-color="#da7108"/><stop offset="1" stop-color="#d45e00"/></linearGradient></defs><path class="cls-1" d="M201,62.34c1.86.18,2.87.95,2.26,1.73l1.41.57.39.15a.88.88,0,0,0,1-.55l-.14-.28-.16-.31a3.7,3.7,0,0,1,.84-.84l.29-.21,1.33-.74.56-.73c.38.46.8.62.93.36a3.71,3.71,0,0,1,1.25-1c.52-.28,2.2.13,2.34-.05s1.15-.13,1.28-.49l.48-.15.11,0c.1-.06,1.52-.6,3.15-1.22l1.7.27.17,0a1.18,1.18,0,0,0,.78-.39,3.3,3.3,0,0,1,1.77-.63,15.66,15.66,0,0,0,2.84-.86l.73-.1.24,0a1.34,1.34,0,0,0,1.24-.22,12.35,12.35,0,0,1,2.14-1.26c.43-.09,2.39-.69,3.44-1l1.07-.08.82,0a17.25,17.25,0,0,0,2.47-1.65c.49-.43,2.6.36,3.16.24l.37-.28c.38-.28.51-.78.87-1.11l.08-.07a4.52,4.52,0,0,0,2.55-.2c.92-.32,3.35-1.29,3.68-1s2-.53,2.74-.8l.41-.39,1.05-1c1.08.54,2,.82,2.13.62l0-.18.12-.52a4,4,0,0,0,1.65-.49,22,22,0,0,0,2.25-1.3c.51-.43,2.18.45,2.32.35s1.24-.61,2.11-1,3.21-1.44,3.27-1.5a13.72,13.72,0,0,1,2-.24c1-.08,3.64-1,3.88-.92a7,7,0,0,0,2.35-.74,22.52,22.52,0,0,1,4.21-.73c.11,0,.48-.29.18-.4s-.36-.75.41-1.24,3.25.33,3.38.23,1-.43,1.54-.68,2.5-.46,2.76-.72l.28-.22c.22-.17.51-.44.75-.42l.71,0a2.9,2.9,0,0,0,2.36-.7l.56-.19.79-.28a29.35,29.35,0,0,1,3.29.4c.79.16,3.36-1.29,4.34-1.79s4.66,0,5.61.21l.79-.6a3.58,3.58,0,0,1,1.48-.63l.82-.14a3.56,3.56,0,0,0,2.71-.09l.72-.24c.25-.08.73.44,1.08.42l1.13-.06c1.22-.26,2.61-.53,3.09-.61s1.95.46,2.57.27,2.86.33,3.47.33l.57-.06.26,0a7.26,7.26,0,0,1,2.08-.18c.87,0,4.2,1.08,5.79,1.25s7.5.34,9.49.32l1.27,1.3a1.15,1.15,0,0,0,1.79.07l.08-.06c.5.26,1.11.55,1.34.64a4.21,4.21,0,0,0,1.34-.06c.42-.06,1.33.67,1.78,1s2.18,1.66,3,2.14a20.59,20.59,0,0,1,3.86,4.69l1.23,1,.08.07c-.18.29.08,1.21.57,2s1.61,3.22,1.69,3.37.36,1.36.61,2.24l.29.79c.2.53,1.56.54,1,1.47l-.6.95a5.27,5.27,0,0,1,2.19,1c.21.3,1.13,1.69,1.52,2.44l.6.22,1.07.38c1.32.19,3.07.39,3.88.44s3.56,0,4.27.1l.67.11.56.09a7.78,7.78,0,0,0,2.34-.33c.66-.22,3.93-.1,4.43-.52l.73.72c.48.48.5-.31.5-.56,0-.91.28-1.35,1.45-.72l.18.1c.31,0,.68-.49.82-1l.83.57.22.15a2.61,2.61,0,0,1,1.73-.25c.2.16.95.62,1.13.56l.17-.06c1.56-.5,3.13-1,4.68-1.5l.93-.31c1-.4,2.28-1,2.87-1.28l.84.36.59.25a3.19,3.19,0,0,1,1.55-1.06l.25,0,.37,0a23.12,23.12,0,0,0,3.19-.67,1.77,1.77,0,0,1,1.42.52c.47.46,1.88-.94,2.38-1s1.77-.82,2.12-.78a2.58,2.58,0,0,0,1.7-.72c.22-.4,1.48.24,1.59.08a4.06,4.06,0,0,1,2.18-.82l.93,0h.45a9.25,9.25,0,0,0,2.45-1.38l1.22.22.91.16a17.58,17.58,0,0,0,2.64-.55,22.32,22.32,0,0,1,2.38-1l.63.14c1.43.33,2.47-.11,4.62-1.42l.16-.1a14.19,14.19,0,0,0,2.91-.16l.74-.48.22-.13c.41,0,.68.23.59.45l0,.22-.1.52c.17.64.67.58,1.1-.13l.6-.47.63-.47c.93-.34,1.48-.33,1.22,0s.53,1.11,2.08.73,5.34-.73,4.78-.91a5.64,5.64,0,0,0-2.9.16l-.48.19-.34.13c-.49,0-.88-.23-.87-.43s.77-.89,1.4-1.21a18.82,18.82,0,0,1,3.17-.39c.16-.08.67-.48.86-.24s1.86.31,3.42-.21l1-.54a1.56,1.56,0,0,1,1.81,0,2.77,2.77,0,0,0,3.2-.4l.33-.31a11.65,11.65,0,0,1,2.22-.17c.57,0,2.65-.29,3.48.13l.86-.58.74-.5,1.92-.32c.07,0,1,0,2.06,0a26,26,0,0,0,4.17-.33,3.31,3.31,0,0,1,2.46.29c.82.53,4-.55,4.5-.6l.46.09c.51.09,1.13.56,1.44.44s.47-.81.83-1.14l.28-.26a2.61,2.61,0,0,1,1.44.07,2,2,0,0,0,1.4-.13,2.33,2.33,0,0,1,1.39-.35l.26,0a5.65,5.65,0,0,0,2.39,0c.92-.46,1.61-.77,2.53-.14l.12.09a2.28,2.28,0,0,0,1.1-.6c.39-.34,2.68.13,3.32.15s2.34-.35,2.41-.83,1.89.07,2.44.4,3.26.28,3.64.47,1.4-.5,1.75-.39a2.81,2.81,0,0,0,1.92-.27,4.27,4.27,0,0,1,3-.63l.5.33,1.61,1.06c-.57-1-.38-1.52.42-1.15s3.25.66,3.49.83,1.09.54,1.24.32,1.11-1.53,1.69-2.37l1.4.94c.81.55,2.33-.16,3.26.72l.15.15a7.47,7.47,0,0,0,1.91-.68,9,9,0,0,1,3.36-.14l.91.08.55,0c.62-.15,1.69-.36,2.37-.46s4,.28,4.51.19a6,6,0,0,1,2.18,0,2,2,0,0,0,1.4.74c.58,0,1-1.37,1.17-1.38s1.7.29,3.17.59l1.3-.3.35-.08a6.42,6.42,0,0,1,2.38.17c1,.2,4,.13,5,.65l.94-.75c.64-.51,1-.86,1.14.27.09.53.85.43,1.41.06l.5-.34a10.29,10.29,0,0,0,2.52-.41l.64-.12.18,0a7.59,7.59,0,0,0,1,.89,8.37,8.37,0,0,0,2.71.21l.14-.11.9-.69a3,3,0,0,0,2,.62l.41-.15.6-.22a36.5,36.5,0,0,0,4.36-.59,16.78,16.78,0,0,1,4.45.49l.73-.46.68-.43a11.93,11.93,0,0,0,3.28.27c1.1-.07,4,.21,4.39-.06l.36-.16.09,0c.13-.11.3,0,.38.16a1,1,0,0,0,1.36-.06c.53-.55,3.46.1,4.3,0s2.85.9,2.89.86.78-.31,1.52-.57a38.42,38.42,0,0,1,6.07,0l.56-.16.18,0c.1-.56.4-.8.65-.53a4.09,4.09,0,0,0,1.71.69,14.77,14.77,0,0,0,2.83-.81,12.15,12.15,0,0,1,4.14.2c.43.13,2.38-.09,3.16.11l.7,0H622a1,1,0,0,1,1.37-.48,2.6,2.6,0,0,0,2,0c.35-.24,2.12-.05,3-.59l.72,1.05h0c.13,0,.94-.2,1.8-.34s2.88-.41,3.35-.52a5.06,5.06,0,0,1,2.59.4c.48.35,2.32-.49,3-.3s2.95-.3,3.4-.3a13.31,13.31,0,0,1,2.49.59l.57-.36a1.8,1.8,0,0,1,1.2-.12l.79.2a8.19,8.19,0,0,0,3.07.38l.77-.17,1.14-.24a22.4,22.4,0,0,0,4.68-.16l.93.95,1.88-.74.15-.11a11.65,11.65,0,0,1,3,0c1.48.11,5.4,1,5.68,1.07a11.93,11.93,0,0,0,2.73-.74c.88-.34,3.38.51,3.5.53l2.51.27c1.13.12,4.14,1.38,4.18,1.21a8.49,8.49,0,0,1,.25-1c.1-.26,1.45.09,2.17,0s2.65.07,2.47.73,2.89.92,2.81.66,0-1,.36-1.14a5.49,5.49,0,0,1,2.09.38c.6.21,2.87-.08,3.35,0s2.19.5,2.66.62a4.58,4.58,0,0,0,2.28-.46c.43-.27,1.84.53,2.17.54s1.56-.17,2-.11,1.89.57,2.43.69l.56-.29.2-.1c.56.36.39,1.06-.36,1.53l1.65.07c.79,0,1.48,0,1.3-.9l-.12-.58a5.92,5.92,0,0,1,2.68.11l.3.6c.29.6-.3.82-1,.81h-.08a.9.9,0,0,0,.82,1l.22-.17c.55-.44.81-1.14,1.4-1.47l.57-.32c.94-.08,1.72.14,1.74.49a3.7,3.7,0,0,0,1.48,2c.77.39,3-.46,3.09-.46s1,.19,1.94.41,3.33-.08,3,.1a3.35,3.35,0,0,0-.79,1.92v1.28a1.9,1.9,0,0,0,.94,1.71c.52.19,1.83,1.2,1.8,1.83s-2,1.25-2,.84-.24-1.75-.53-1.47a3.29,3.29,0,0,0-.83,1.76,2.62,2.62,0,0,0,2.27,1.35c.67-.2,2.56-.45,2.29,0a2.66,2.66,0,0,0,.07,1.77c.13.35.55,1.6.76,2l.28,0c.89.12.93.56.6,1l-.32.44a7.79,7.79,0,0,1-1.8-1c-.06-.13-.45-.52-.53-.11s-.63,1.45-1,1a4.45,4.45,0,0,1-.58-1.52c0-.28-.71-.86-1-.55s-.75,1.15-1.17,1.35a12.43,12.43,0,0,1-3.19,1.41L721,59.15,719.86,59a7.88,7.88,0,0,1-2.78-.19c-.18-.16-1-.53-1.4-.34a16.5,16.5,0,0,0-1.82,1.08c-.24.23-1.6-.11-2.1.17s-2.57-.25-3.11.07-2.52-.74-3.19-.85-2.9.5-3.82.23l-.9,0-.65,0a14.26,14.26,0,0,1-1.69,0c-.2,0-2.49.1-4.7.17s-8.63.33-9.35.18-3.88.19-5.16.18l-1.07-.31-.69-.2c-.47.21-1.31.53-1.87.72l-.28-.14-2-1a30,30,0,0,1-5.71.26c-.8-.13-3.76.14-4.62.15s-3.87.05-4.77,0-3.11-.4-3.41.49l-1.3-.48-1-.36a10.89,10.89,0,0,1-3.42,0l-.71.18-.86.21a3.49,3.49,0,0,0-2.18.14c-.42.25-2.3-.88-3.3-1.24s-4.18,1-5.15,1-3.76-.06-4.2-.35-2.49.3-3.06.38-2.42.12-2.84.27a12.64,12.64,0,0,1-2.74,0,20.77,20.77,0,0,0-3,0,5.67,5.67,0,0,1-1.94-.58c-.1,0-1.94.39-3.92.83s-5.82.07-6.33.08-2.82.14-4.07.3-6-.73-7.9-.84-7,1.07-7.2,1-2.17-.42-3.82-.75l-1.37.71c-.63.34-1-.83-1.61,0l-.39.53c-.59-.42-3.76-.86-7.06-1l-3,.22-.76.06c-.72-.06-2.21-.23-3.3-.37l-.31.34c-.72.76-1.07-.41-1.64,0-.82.59-1.59-.22-2.39-.3l-.85-.08a6.14,6.14,0,0,0-2.38.93c-.46.37-2.36-.39-3-.17s-2.67-.73-3.29-.9-2.17.7-2.28.72-1.85-.2-3.76-.41l-1.76.29-.87.15a10.21,10.21,0,0,0-2.81.36c-.6.2-2.67-.7-3.76-.62a46.65,46.65,0,0,1-6.27,0l-1.08.82-.23.17a19.84,19.84,0,0,0-4.8-.64c-1.8,0-6.82.79-7.3.57s-2.24.42-2.7.58-1.71-.38-1.8-.34-1,.37-1.81.65l-.76.08-.56.05a10.39,10.39,0,0,0-2.41-.35l-.47.22-.91.43a9.73,9.73,0,0,0-2.51-.41,6.29,6.29,0,0,0-2.49.7c-.4.38-2.18-.4-2.66-.47a27.37,27.37,0,0,0-2.69.78c-.68.1-3.12,0-3.8.07s-3.79.46-5.39.61-6.6.36-7.54.33-3.57.74-4.21.76-3,.43-3.83.5-3.57.5-4.34.47a35,35,0,0,0-4.34,1.1,54.21,54.21,0,0,1-5.5.29,38.28,38.28,0,0,0-4.44,1c-.37.07-1.86.1-2.47.1s-2.27.67-2.8.72a33.72,33.72,0,0,0-4.25.89c-1.27.39-5.92,1.17-7.28,1.34s-4.84,1.47-5.29,1.18-1.69.61-2,.58a12.68,12.68,0,0,0-2.08.55c-.47.15-1.9.77-2.34.87s-2.31.67-3.36.94-4.66,1.36-5.72,1.65a74.76,74.76,0,0,0-7.49,2.43l-2,.3-.84.13a14,14,0,0,0-2.57.77,21.27,21.27,0,0,1-2.48.59,11.09,11.09,0,0,1-3,.35c-.73-.12-4.56,1.46-7.29,2.2l-2.64.12a16.8,16.8,0,0,0-2.26.1c-.86.17-1.64.67-2.5.76l-.57.07a2.42,2.42,0,0,0-2.09,0c-.45.31-2.46-.31-3-.47s-2.06-.63-2.38-.71-1.22.07-1.56-.13-1.76.26-2.14.42a16.22,16.22,0,0,1-4.5-.73l-1.61-.53-.18-.06c-.05-.42-.34-.57-.64-.33a5.34,5.34,0,0,1-3.39.13,13.29,13.29,0,0,1-4.47-4.41l-1.68-.35-.83-.18A24.06,24.06,0,0,0,353.07,74a23.69,23.69,0,0,0-2.41-2.83c-.7-.57-.84-2.8-1-2.89a8.13,8.13,0,0,0-1-.5,12.68,12.68,0,0,1-2-2.41l-1.56-.52c-1.35-.44-2.36-1.51-3.64-2.15-.36-.18-1.11.19-1.7.26-.93.12-1.89.13-2.8.31l-1,.18c-1,.34-2.23.72-2.69.85a5.56,5.56,0,0,1-2.29-.24c-.42-.17-1.51.75-2.26.65l-.69,0a10.47,10.47,0,0,0-2.68,0l-1.52.35a30.78,30.78,0,0,1-4.19.75c-.62,0-1.38,1.45-1.88,1.58a23.28,23.28,0,0,1-2.92.54,17.88,17.88,0,0,0-3.61.9,21.21,21.21,0,0,1-3.87.48c-.14.05-.65.45-1.09.73s-2.42.86-2.92,1.17-2.92.57-3.79.82-3.5,1.23-4.06,1.24-2.23.47-3.3,0l.3,1.58c0,.08-.32.29-.52.3l-1.07.08a11.62,11.62,0,0,1-2.89,1.39c-.72.19-3.35.78-4.17,1s-3.28.88-3.66,1-1.36.72-2,.28-1.93,1.41-2.24,1.61l-.26,0c-1.4-.21-2.36.63-3.54.9l-.62.15a3.06,3.06,0,0,1-1.34.5c-.23,0-.85.2-.85.56s-1.28-.11-1.54,0a10,10,0,0,1-2.78,0l-.27,1.26-.13.61c-1.25.12-3.07.32-4.07.46S257.21,86.1,257,86a31.87,31.87,0,0,0-5.1.13l-.69,2.1-.29.87a2.23,2.23,0,0,0-2.14-.58,19.07,19.07,0,0,0-3.83,1.69l-.69-1a1.76,1.76,0,0,0-.92.23l-1.25.88a18.91,18.91,0,0,0-3.64,1.12c-.56.3-2.82.09-3.75.74l-1.25,0c-.72,0,.23,1.24-1,.94l-.48-.11a3,3,0,0,0-1.57.42c-.32.23-1.4-.3-1.86-.1a6.92,6.92,0,0,0-2.3,1.93l-1.22-.43-.37-.13a6,6,0,0,1-2.48,1l-.51,0-.67-.06c-.7.06-3.12.55-5.37,1.08l-1.85.89c-.34.16-.47.62-1.05.17l-.66-.51a6.12,6.12,0,0,1-1.64,1.4h-.52l-1.07,0a17.66,17.66,0,0,0-2,1,18.54,18.54,0,0,1-2.69.6l-1.17.58-1.06.53c-1.42.46-2.72.65-2.91.44s-1.32,0-1.72-.21-.92,1-1.34,1h-.67a2.53,2.53,0,0,0-1.73.52l-.69.32a6.07,6.07,0,0,1-2.3.53l-.42,0a15.65,15.65,0,0,0-2.09,1.48c-.71.59-3.64-.29-4.17-.24s-2,.82-2.61.94a17.82,17.82,0,0,1-3.21.51c-.56-.09-1.49,1.23-2.15,1.31a8.83,8.83,0,0,1-2.86-.53c-.38-.19-1.46,1-2,1.23a1.55,1.55,0,0,1-1.51-.19c-.26-.25-1.78.3-2.3.56s-2.1.63-2.33.26-1.85.35-2.27.56l-.07-.06c-1-.91-1.52,0-2.15.39l-.11.07a2,2,0,0,0-1,.37c-.36.23-1.43-.44-1.53-.62a.91.91,0,0,0-1.26.07c-.46.48-2.3,0-2.21-.12s-.25-.42-.94-.28a14.28,14.28,0,0,1-3.32-.51c-.46-.09-2.22,0-2.75,0s-3.9,0-6.3-.09-8.09-1.38-8.36-1.83-3-.81-4.08-1.19l-.51-.64-.63-.81a13.4,13.4,0,0,1-2-1.26,9.2,9.2,0,0,0-1.62-.8,19.42,19.42,0,0,1-2.4-2.07c-.44-.34-.44-2-.82-2.49a4.8,4.8,0,0,1-.81-2.46c.15-.36-1.13-.72-1.15-.88l.06-.12c.44-.9-.14-1.48-1-1.83l-.47-.19a3.82,3.82,0,0,1,1.13-.94l.09-.58.07-.39c.46-.72.38-1.07-.19-.77a7,7,0,0,1-2,.77,7.61,7.61,0,0,1,.66-1.85c.2-.51-.92-1.84-1.11-2.07s-.33-1.08-1.07-1.35l0-.16.21-1a18.73,18.73,0,0,1-1.46-3.49c-.27-1-2.12-3.78-2.3-4.36l-.23-.52-.36-.8a24.57,24.57,0,0,1-2-5.22v-.17a5.55,5.55,0,0,0,.05-2.18l-.89-2.38c.44-2.61.63-5.07.43-5.46l.1-.34.13-.43a13.27,13.27,0,0,0,.82-3.07l2.31-2.14.08-.08a1.71,1.71,0,0,1,.21-.94c.17-.33-.29-1.24.1-1.45s1.3-2.17,2.15-3.32l.5-1.06c.33-.73.48-1.48,1.27-1.93l1.21-.68c-.12-1.14.12-2.13.53-2.19s1.47-.39,1.13-.52-1-.55-.72-.63.91-.35.87-.43a3.81,3.81,0,0,0-.91-.65c-.41-.22-2.42.24-3.22.5S111,41.6,109.9,41.83s-3.66,1.67-3.92,1.54l-.26-.12-2.57.72c-.58.28-1.15.59-1.76.83L101,45A2,2,0,0,0,99.81,46l-.72.07-.43,0c-.45.19-1.77.61-3,.94s-4.53,2.09-5.33,2.34l-.73.22-.63.18c-.67.24-2.18.91-3.34,1.5s-5.27,2.39-6.45,2.83a33.68,33.68,0,0,0-5,2.25,11.13,11.13,0,0,1-2.73,1.23c-.57.2-2.65.86-3.35,1a10.59,10.59,0,0,0-2.57,1,6.66,6.66,0,0,1-2.71,1.76c-1.54.63-7.25,3-9.28,3.76l-1.51,1.3a18.46,18.46,0,0,1-2.69,2.33l-1,.61c-1.09.7-2.76,1.91-3.7,2.67S40,74.18,39.61,74.49a4.6,4.6,0,0,1-2.57.67l-.54-.1-1.12-.19a7.44,7.44,0,0,0-3.28.19c-.56.27-2.05-.5-2.13-.41a7.29,7.29,0,0,1-1.91.19l.22-.85c.07-.26.3-.49.4-.75.31-.78.93-1.51-.83-1.9-.75-.16-1.93-.88-1.76-2,.11-.65-.38-.69-1-.87l-.52-.14a16.78,16.78,0,0,0-2.93-3.24l.82-1.57,0,0c-.14-.09-1.16-.81-2.25-1.6l-.12-1.38L20,59.41A11.85,11.85,0,0,1,18.22,56a7.91,7.91,0,0,1,.58-3.31l-.68-.46c-.1-.07-.07-.46.05-.54l.39-.25c.5-.22.66-.69.35-1l.55-.42A1.57,1.57,0,0,0,20,49c.06-.33-.26-.76-.1-1A6.3,6.3,0,0,1,21,46.88l.8-.79c.89-.85,1.37-1.9,1.08-2.32s1.56-.89,1.93-1.23,1.9-.75,1.86-.94.66-1,1.12-1.37A25.58,25.58,0,0,1,30,38.81a5.92,5.92,0,0,0,.68-1.14,12.68,12.68,0,0,1,1.7-1.35,22.66,22.66,0,0,1,3.9-1.44c.43-.18,1.36-1.35,1.83-1.64s1.53-1.21,1.62-1,.5.49.58-.15,2.39-1.94,3.38-2.73l1.4.59c.11.05.44-.15.58-.29.43-.44.82-.9,1.21-1.36s.76-.22,1.31,0,1.57.17.56-.72a3.5,3.5,0,0,1,1-.86c.21-.1.87.27,1,.17l1.61-1.45c2.38-.67,4.5-1.47,4.7-1.78l.27-.23.12-.11a10.75,10.75,0,0,1,1.75.56l.23-.59.13-.32c-.42-.59-.37-1,.1-1a16,16,0,0,0,2.54-.28,7.89,7.89,0,0,0,2.63-2.18l.81-.41.42-.21a23.83,23.83,0,0,0,4.66-.56l.42-1.42a2.87,2.87,0,0,1,.72,0c.42,0,1,.23,1.21.08l.46-.26c-.09-.52.41-.86,1.1-.73l.56-.12A6.2,6.2,0,0,0,77,15.06l.57-.34A2.38,2.38,0,0,1,78.93,14a3.1,3.1,0,0,0,1.65-.77l.51-.11.48-.11a6.26,6.26,0,0,0,1.91.26l.27-.16.48-.3c.44-.41.93-.88,1.07-1a1.22,1.22,0,0,1,1.28,0l.32.11,1.08.37a12.18,12.18,0,0,1,3.87-1.33l.89-.47.53-.29a1.9,1.9,0,0,1,1.84-.39c.38.25,1.41-.81,2-.86a8.85,8.85,0,0,0,2.65-.52c.42-.33,1.82.57,2.16.6A16.91,16.91,0,0,0,104.74,8l1.09,0c.71,0,1.61,0,2.29.07s.7,0,.77-.41l0-.17c.14-.18.6-.14,1,.08s1.79-.46,2.15-.48L117.61,7c2.32-.06,8.56,1.13,8.91,1a4,4,0,0,1,2,.45l.68-.35a4.28,4.28,0,0,1,1.51-.1c1-.08,2,.51,3-.23l.12-.09c1,.63,1.79.86,1.87.51s2-.4,2.74-.26a14.71,14.71,0,0,1,3.34,1.9,9.5,9.5,0,0,0,2.85.83,10.56,10.56,0,0,1,2,1.09c.9.56,2.56,2.71,2.34,3s.89,1.23,1.14,1.52,1.11,1.3,1.4,1.59a6.51,6.51,0,0,1,.89,2.24c.1.62.54,2.45.69,2.16s.54-.37.65.26a18.24,18.24,0,0,1,.65,3.4c-.11.68.83,3,1.28,4.12s1.82,4.13,2.33,4.22,2.37,2.27,3,2.44-.05,1.56.33,1.8,1.11,1,.94,1.25a2.07,2.07,0,0,0,.12,1.35c.14.32.93,3.35,1.49,3.84H162.2a4,4,0,0,0-.3,1.1,18.32,18.32,0,0,0,.26,3.13l-.92.81a3.26,3.26,0,0,0-.78,2.35V53a6,6,0,0,0-1.85,1.59l-.27.65-.25.6A8.45,8.45,0,0,1,157,57.66a8.47,8.47,0,0,0-1.14,2,6.27,6.27,0,0,0-.55,2.08c.09.62-2,1.33-2.27,1.8s-1.39,2.28-1.8,3.05-2.3,3.81-3,5.09l-.73,1.13c-.73,1.14-1.61,2.21-2.34,3.35l-.19.29c.09.49,1.15.71,2.35.49a46.91,46.91,0,0,1,4.94,0l.2-.46.33-.76a1.79,1.79,0,0,0,1.48.33,13.13,13.13,0,0,1,2.79-.65c.95-.13,3-1,3.18-.44s2.17-.35,3.18-.59,3.57-1.76,4.12-1.87,2.14-.85,2.63-.86a7.43,7.43,0,0,0,2.15-.64c.31-.17,1.42.21,1.62.16s.89-.42,1.22-.57a7.59,7.59,0,0,1,2.17-.21c.44,0,3.07-1.31,5-2.23l2.14-.2,1.37-.13a34.38,34.38,0,0,0,3.5-.78l.37-.2.93-.49a5.83,5.83,0,0,0,2.37-.56,2.3,2.3,0,0,1,1-.73c.3,0,1.34-.1,1.66-.14a6.69,6.69,0,0,0,2.24-1.7l1.1,1a1.2,1.2,0,0,0,.73-.29Z" transform="translate(-18.06 -6.99)"/></svg>